<svg width="16" height="16" viewBox="0 0 16 16" fill="none" xmlns="http://www.w3.org/2000/svg">
<path fill-rule="evenodd" clip-rule="evenodd" d="M14.666 8.83301C14.942 8.83302 15.1658 9.05704 15.166 9.33301V10C15.166 10.6029 15.1675 10.9534 15.1279 11.2539C14.862 13.2731 13.2731 14.862 11.2539 15.1279C10.9534 15.1675 10.603 15.166 10 15.166H9C6.69908 15.1658 4.83317 13.3009 4.83301 11V10.666C4.83338 10.3903 5.05725 10.1662 5.33301 10.166C5.60892 10.166 5.83263 10.3902 5.83301 10.666V11C5.83317 12.7486 7.25136 14.1658 9 14.166H10C10.6345 14.166 10.9039 14.1655 11.123 14.1367C12.6936 13.93 13.9299 12.6936 14.1367 11.1231C14.1655 10.9039 14.166 10.6344 14.166 10V9.33301C14.1662 9.05726 14.3903 8.83337 14.666 8.83301ZM9.3125 9.31251C9.50754 9.11749 9.82422 9.11793 10.0195 9.31251C10.2148 9.50776 10.2148 9.82427 10.0195 10.0195L9.01953 11.0195C8.82427 11.2148 8.50776 11.2148 8.3125 11.0195C8.11791 10.8242 8.11746 10.5075 8.3125 10.3125L9.3125 9.31251ZM8.3125 4.9795C8.50759 4.78443 8.82424 4.78476 9.01953 4.9795L11.6865 7.64649C11.8293 7.78944 11.8722 8.00469 11.7949 8.19141C11.7175 8.37806 11.5351 8.50001 11.333 8.50001H1.33301C1.05712 8.49983 0.833183 8.27589 0.833008 8.00001C0.833209 7.72414 1.05714 7.50018 1.33301 7.50001H10.126L8.3125 5.68653C8.1178 5.49128 8.11757 5.1746 8.3125 4.9795ZM10 0.833014C10.6029 0.833014 10.9534 0.831581 11.2539 0.8711C13.273 1.13698 14.8619 2.72704 15.1279 4.7461C15.1674 5.04655 15.166 5.39721 15.166 6.00001V6.66602C15.166 6.94216 14.9422 7.16602 14.666 7.16602C14.3902 7.16567 14.166 6.94195 14.166 6.66602V6.00001C14.166 5.36516 14.1656 5.09519 14.1367 4.87598C13.9297 3.30568 12.6934 2.07003 11.123 1.86329C10.9039 1.83449 10.6344 1.83301 10 1.83301H9C7.25136 1.83319 5.83321 3.25137 5.83301 5.00001V5.33301C5.83301 5.60916 5.60915 5.83301 5.33301 5.83301C5.05702 5.83284 4.83301 5.60905 4.83301 5.33301V5.00001C4.83321 2.69909 6.69908 0.833191 9 0.833014H10Z" fill="#E6A500"/>
</svg>
