<svg width="24" height="24" viewBox="0 0 24 24" fill="none" xmlns="http://www.w3.org/2000/svg">
<path d="M12 1.25C15.2078 1.25 18.0869 2.65621 20.0557 4.88281L21.4697 3.46973C21.7626 3.17683 22.2374 3.17683 22.5303 3.46973C22.8232 3.76262 22.8232 4.23738 22.5303 4.53027L12.5303 14.5303C12.3896 14.6709 12.1989 14.75 12 14.75C11.8011 14.75 11.6104 14.6709 11.4697 14.5303L8.46973 11.5303C8.17683 11.2374 8.17683 10.7626 8.46973 10.4697C8.76262 10.1768 9.23738 10.1768 9.53027 10.4697L12 12.9395L18.9912 5.94727C17.2942 3.98884 14.7927 2.75 12 2.75C6.89137 2.75 2.75 6.89137 2.75 12C2.75 17.1086 6.89137 21.25 12 21.25C17.1086 21.25 21.25 17.1086 21.25 12C21.25 11.3656 21.1867 10.7467 21.0654 10.1494C20.983 9.74358 21.2446 9.34718 21.6504 9.26465C22.0563 9.18226 22.4527 9.44475 22.5352 9.85059C22.6762 10.5456 22.75 11.2647 22.75 12C22.75 17.9371 17.9371 22.75 12 22.75C6.06294 22.75 1.25 17.9371 1.25 12C1.25 6.06294 6.06294 1.25 12 1.25Z" fill="#22272F"/>
</svg>
