<svg width="24" height="24" viewBox="0 0 24 24" fill="none" xmlns="http://www.w3.org/2000/svg">
<path fill-rule="evenodd" clip-rule="evenodd" d="M10.7782 3.14186C12.0795 2.49667 13.6579 2.975 14.3827 4.23366C14.616 4.63889 14.6831 5.19565 14.7157 5.78054C14.7505 6.404 14.7499 7.23935 14.7499 8.30886L14.7499 9.50026C14.7498 9.91436 14.414 10.2503 13.9999 10.2503C13.5858 10.2502 13.25 9.91432 13.2499 9.50026L13.2499 8.30886C13.2499 7.22047 13.2495 6.43597 13.2177 5.86452C13.1837 5.25515 13.1163 5.03995 13.0829 4.98171C12.7533 4.40982 12.0356 4.19234 11.4442 4.48561C11.384 4.51567 11.2097 4.658 10.8436 5.14577C10.5001 5.60356 10.0646 6.25576 9.46083 7.16139C9.24178 7.48997 9.07658 7.74444 8.86708 7.95241C8.48671 8.32988 8.00351 8.58757 7.47841 8.6946C7.18922 8.75348 6.88596 8.75026 6.49111 8.75026L5.9999 8.75026C5.02192 8.75026 4.67992 8.75723 4.41787 8.82741C3.64148 9.0355 3.03508 9.64182 2.82704 10.4182C2.75693 10.6803 2.7499 11.0225 2.7499 12.0003C2.7499 12.9781 2.75687 13.3203 2.82704 13.5823C3.03515 14.3586 3.64149 14.9651 4.41786 15.1731C4.67992 15.2433 5.02192 15.2503 5.9999 15.2503L6.49111 15.2503C6.886 15.2503 7.18919 15.247 7.47841 15.3059C8.00359 15.413 8.48668 15.6706 8.86708 16.0481C9.07659 16.2561 9.24174 16.5105 9.46083 16.8391C10.0646 17.7448 10.5001 18.397 10.8436 18.8548C11.21 19.3429 11.3841 19.485 11.4442 19.5149C12.0355 19.8081 12.7533 19.5905 13.0829 19.0188C13.1163 18.9608 13.1836 18.7457 13.2177 18.136C13.2496 17.5646 13.2499 16.7801 13.2499 15.6917L13.2499 14.5003C13.2499 14.0861 13.5857 13.7503 13.9999 13.7503C14.4141 13.7503 14.7499 14.086 14.7499 14.5003L14.7499 15.6917C14.7499 16.7612 14.7505 17.5966 14.7157 18.22C14.6831 18.8049 14.616 19.3617 14.3827 19.7669C13.6578 21.0253 12.0794 21.5038 10.7782 20.8587C10.3593 20.6509 9.99512 20.2238 9.64345 19.7551C9.26868 19.2557 8.80602 18.561 8.21279 17.6712C7.95925 17.2909 7.88709 17.1897 7.81044 17.1135C7.63763 16.942 7.41816 16.8244 7.17958 16.7757C7.07354 16.754 6.94895 16.7503 6.49111 16.7503L5.9999 16.7503C5.11826 16.7503 4.53009 16.7565 4.02919 16.6223C2.73531 16.2756 1.72466 15.2648 1.37783 13.971C1.24362 13.4701 1.24989 12.8818 1.2499 12.0003C1.2499 11.1187 1.24368 10.5304 1.37783 10.0296C1.72459 8.73564 2.7353 7.72501 4.02919 7.37819C4.53009 7.24398 5.11826 7.25026 5.9999 7.25026L6.49111 7.25026C6.94881 7.25026 7.07357 7.24646 7.17958 7.22487C7.41808 7.17617 7.63765 7.05844 7.81044 6.88698C7.88711 6.81079 7.95928 6.70962 8.21279 6.32936C8.80598 5.43957 9.2687 4.74482 9.64345 4.24538C9.9951 3.77676 10.3593 3.34968 10.7782 3.14186ZM17.3759 5.58327C17.606 5.23896 18.0725 5.14624 18.4169 5.37624C20.436 6.72477 21.7499 9.20779 21.7499 12.0003C21.7498 14.7927 20.436 17.2758 18.4169 18.6243C18.0725 18.8541 17.6059 18.7614 17.3759 18.4173C17.1459 18.0729 17.2387 17.6064 17.5829 17.3762C19.1504 16.3295 20.2498 14.3353 20.2499 12.0003C20.2499 9.66518 19.1504 7.67111 17.5829 6.62429C17.2387 6.39426 17.1461 5.92765 17.3759 5.58327ZM16.3759 9.58327C16.606 9.23896 17.0725 9.14624 17.4169 9.37624C18.2404 9.92633 18.7499 10.917 18.7499 12.0003C18.7498 13.0834 18.2404 14.0742 17.4169 14.6243C17.0725 14.8541 16.6059 14.7614 16.3759 14.4173C16.1459 14.0729 16.2387 13.6064 16.5829 13.3762C16.9548 13.1279 17.2498 12.626 17.2499 12.0003C17.2499 11.3744 16.9548 10.8727 16.5829 10.6243C16.2387 10.3943 16.1461 9.92765 16.3759 9.58327Z" fill="#22272F"/>
</svg>
