<svg width="24" height="24" viewBox="0 0 24 24" fill="none" xmlns="http://www.w3.org/2000/svg">
<path d="M12 22C17.5228 22 22 17.5228 22 12C22 6.47715 17.5228 2 12 2C6.47715 2 2 6.47715 2 12C2 17.5228 6.47715 22 12 22Z" fill="#FCFCFC"/>
<path d="M4.06719 5.9118C3.28168 6.93379 2.68937 8.11172 2.34449 9.39137H7.54676L4.06719 5.9118Z" fill="#0052B4"/>
<path d="M21.6555 9.39137C21.3106 8.11176 20.7183 6.93383 19.9328 5.91184L16.4533 9.39137H21.6555Z" fill="#0052B4"/>
<path d="M2.34449 14.6088C2.68941 15.8884 3.28172 17.0663 4.06719 18.0882L7.54664 14.6088H2.34449Z" fill="#0052B4"/>
<path d="M18.0882 4.06723C17.0662 3.28172 15.8883 2.68941 14.6087 2.34449V7.54672L18.0882 4.06723Z" fill="#0052B4"/>
<path d="M5.9118 19.9328C6.93379 20.7183 8.11172 21.3106 9.39133 21.6555V16.4533L5.9118 19.9328Z" fill="#0052B4"/>
<path d="M9.39129 2.34449C8.11168 2.68941 6.93375 3.28172 5.9118 4.06719L9.39129 7.54668V2.34449Z" fill="#0052B4"/>
<path d="M14.6087 21.6555C15.8883 21.3106 17.0662 20.7183 18.0882 19.9328L14.6087 16.4533V21.6555Z" fill="#0052B4"/>
<path d="M16.4533 14.6088L19.9328 18.0883C20.7183 17.0663 21.3106 15.8884 21.6555 14.6088H16.4533Z" fill="#0052B4"/>
<path d="M21.9154 10.6957H13.3044L13.3044 2.08465C12.8774 2.02906 12.4421 2 12 2C11.5579 2 11.1226 2.02906 10.6957 2.08465V10.6956L2.08465 10.6956C2.02906 11.1226 2 11.5579 2 12C2 12.4421 2.02906 12.8774 2.08465 13.3043H10.6956L10.6956 21.9154C11.1226 21.9709 11.5579 22 12 22C12.4421 22 12.8774 21.971 13.3043 21.9154V13.3044L21.9154 13.3044C21.9709 12.8774 22 12.4421 22 12C22 11.5579 21.9709 11.1226 21.9154 10.6957Z" fill="#D80027"/>
<path d="M14.6087 14.6088L19.0711 19.0711C19.2763 18.8659 19.4721 18.6514 19.6589 18.4291L15.8385 14.6087L14.6087 14.6088Z" fill="#D80027"/>
<path d="M9.39129 14.6087L4.92891 19.0711C5.13406 19.2763 5.34855 19.4721 5.5709 19.6589L9.39129 15.8384V14.6087Z" fill="#D80027"/>
<path d="M9.39129 9.39137L4.92895 4.92891C4.72371 5.13406 4.52793 5.34855 4.34113 5.5709L8.16156 9.39133L9.39129 9.39137Z" fill="#D80027"/>
<path d="M14.6087 9.39137L19.0711 4.92895C18.8659 4.72371 18.6514 4.52793 18.4291 4.34117L14.6087 8.1616V9.39137Z" fill="#D80027"/>
</svg>
