<svg width="24" height="24" viewBox="0 0 24 24" fill="none" xmlns="http://www.w3.org/2000/svg">
<path d="M13.9697 8.96971C14.2626 8.67684 14.7374 8.67682 15.0302 8.96971C15.3231 9.2626 15.3231 9.73736 15.0302 10.0303L13.0605 12L15.0302 13.9697C15.3231 14.2626 15.3231 14.7374 15.0302 15.0303C14.7374 15.3231 14.2626 15.3231 13.9697 15.0303L12 13.0605L10.0302 15.0303C9.73735 15.3232 9.26259 15.3232 8.9697 15.0303C8.67681 14.7374 8.67681 14.2626 8.9697 13.9697L10.9394 12L8.9697 10.0303C8.67681 9.73736 8.67681 9.2626 8.9697 8.96971C9.26259 8.67683 9.73736 8.67682 10.0302 8.96971L12 10.9394L13.9697 8.96971Z" fill="#27272A"/>
<path d="M1.25 12C1.25 10.0432 1.77337 8.20597 2.68848 6.62402C2.89587 6.26583 3.3545 6.14359 3.71289 6.35059C4.07144 6.55799 4.19471 7.01743 3.9873 7.37598C3.20078 8.73572 2.75 10.314 2.75 12C2.75 17.1086 6.89137 21.25 12 21.25C17.1086 21.25 21.25 17.1086 21.25 12C21.25 6.89137 17.1086 2.75 12 2.75C10.314 2.75 8.73572 3.20078 7.37598 3.9873C7.01743 4.19471 6.55799 4.07144 6.35059 3.71289C6.14359 3.3545 6.26583 2.89587 6.62402 2.68848C8.20597 1.77337 10.0432 1.25 12 1.25C17.9371 1.25 22.75 6.06294 22.75 12C22.75 17.9371 17.9371 22.75 12 22.75C6.06294 22.75 1.25 17.9371 1.25 12Z" fill="#27272A"/>
</svg>
